<svg id="图层_1" data-name="图层 1" xmlns="http://www.w3.org/2000/svg" viewBox="0 0 213.67 263.31"><defs><style>.cls-1{fill:#fff;stroke:#231815;stroke-miterlimit:10;stroke-width:0.2px;}</style></defs><title>a</title><path class="cls-1" d="M220.11,93.67l7.56,7.58a88.43,88.43,0,0,0,2.3,17.43c2.33,24.08,14.41,45.28,22.68,61.91a103.16,103.16,0,0,1,6.73,15.84c5.26,17.86,21.54,61.54,21.54,61.54l-9.9.24-78-49.48,25.35,19.07v4.09l35.4,38.59,1.08,5-3.58.72-14.69-8.95s-2.5.36.72,8.23a53.7,53.7,0,0,1,21.13,22.56s7.52,7.16,14.32,7.16,26.5-9.31,26.5-9.31,6.8-1.43,6.8-25.42-15.35-55.78-23.23-76.55-32.94-83.79-32.94-83.79-3.22-9.66-3.22-17.54c-4.66-4.66-21.13-13.26-21.13-13.26V76.49c0-5-8.59-21.49-16.83-27.57A35.07,35.07,0,0,0,192.8,42.1s-8.41,2-8.9,4.95a44,44,0,0,0,0,8.41s4,2,8.9,12.86S182.41,101,161.64,130.14s-32.15,65.79-32.15,65.79l-9.4,32.64s-5.93,19.79-11.37,25.72-11.38,16.32-13.85,16.82-2.34,4-2.34,4l8.2,27.09,6.06,1.78,9.63-19.61s-3.57-10.69-2.14-16.75,30.3-56.32,32.08-62.38a59.21,59.21,0,0,0,2.14-9.63s-7.16,10.9-11.46,14.83c-3.06,2.8-1.11-6.06,9.52-22.4l.71-1.11A44,44,0,0,0,159,195.18c6.42,2.85,29.55,12,37.83,11.71s21.12-3.72,28.64-6,5.9,2,10.19,2,6.56-.29,9.54-2.86,2.16-6.28,4.16-6.85,3.71,3.25,3.71,3.25h6.3c-1.7-5.89-14.81-32-14.81-32s-13.19,3-19.09,4.15-13.23,8.56-13.23,8.56a136,136,0,0,1-29.12,6.54c-14.84,1.39-24.12-2.25-24.12-2.25s4.71-5.71,2.42-5.43-7.54,1.21-7.54,1.21l.49-.67c3-4.08,6.43-8.35,10.23-12.74,23.63-27.21,36.52-41.53,44.76-50.12s10.74-20.06,10.74-20.06" transform="translate(-92.43 -42)"/></svg>