<?xml version="1.0" encoding="utf-8"?>
<!-- Generator: Adobe Illustrator 23.0.2, SVG Export Plug-In . SVG Version: 6.00 Build 0)  -->
<svg version="1.1" id="layer_1" xmlns="http://www.w3.org/2000/svg" xmlns:xlink="http://www.w3.org/1999/xlink" x="0px" y="0px"
	 viewBox="0 0 612 792" style="enable-background:new 0 0 612 792;" xml:space="preserve">
<style type="text/css">
	.st0{fill:none;stroke:#000000;stroke-width:0.2;stroke-miterlimit:10;}
</style>
<path class="st0" d="M158.71,213.67c5.78-0.48,23.43-1.66,30.52,1.11c8.53,3.33,19.15,17.06,19.35,41.62s-1.66,38.08-4.58,47.03
	c-2.91,8.95-21.43,25.39-35.17,32.67c-13.73,7.28-21.02,9.36-33.92,6.87c0,0-14.98-2.08-23.1-6.03c-6.09-2.97-17.51-5.14-21.92-6.48
	l3.89-35.6c6.76,4.32,15.53,14.32,26.07,16.91c11.86,2.91,32.88,2.71,45.16-4.58c12.28-7.28,26.22-24.56,27.05-31.84
	s4.23-23.55-2.07-33.34c-2.68-4.16-15.05-5.91-19-5.64c-5,0-18.25-1.34-30.12,3.62c-9.35,3.92-34.01,9.27-43.36,14.11l1.55-29.5
	c6.8-3.85,24.24-12.38,31.41-19.39c9.57-9.36,26.01-23.31,28.09-27.26c2.08-3.95,10.2-12.9,11.03-19.98
	c0.83-7.08,3.12-20.81-1.04-23.72c-4.16-2.91-21.02-1.87-28.93,1.04s-19.35,9.99-20.19,11.65c-0.83,1.66,3.33,10.41,0.83,12.69
	c-2.5,2.29-14.37,7.65-14.37,7.65h-0.21c-0.12,0.46-0.27,1.07-0.43,1.84c-1.61,7.48-5.1,29.2-6.99,55.92l-1.64,32.82l-0.65,2.08
	c-1.78,12.74-2.01,23.83-2.83,33.23l0.1,1.3l-3.78,35.52l0,1.55c1.16,8.61,4.68,33.2,4.68,33.2l-3.73,1.44c0,0,0.86,8.33,0,13.21
	s-8.04,11.78-8.04,11.78l-4.02-6.03c0,0,0,0-7.85-4.8c-4.08-6.81-7.49-27.9-7.49-27.9s0.68-19.74,4.08-61.25
	c3.4-41.52,14.29-130.67,19.06-155.85c-2.04-17.01-19.06-44.24-19.06-44.24v-9.53c13.35,3.61,37.22,28.32,40.44,39.55
	c0.14,0.5,0.25,0.98,0.3,1.42h0.21c0,0,26.22-11.62,44.29-10.55s32.54,9.65,35.25,31.8c2.71,22.15-4.52,39.77-14.46,53.79
	c-6.39,9.01-11.29,13.16-13.97,14.98c-1.49,1.01-2.3,1.3-2.3,1.3s-1.81,0.85-4.82,2.24L158.71,213.67l-1.87,0.17"/>
</svg>
