<?xml version="1.0" encoding="utf-8"?>
<!-- Generator: Adobe Illustrator 23.0.2, SVG Export Plug-In . SVG Version: 6.00 Build 0)  -->
<svg version="1.1" id="layer_1" xmlns="http://www.w3.org/2000/svg" xmlns:xlink="http://www.w3.org/1999/xlink" x="0px" y="0px"
	 viewBox="0 0 612 792" style="enable-background:new 0 0 612 792;" xml:space="preserve">
<style type="text/css">
	.st0{fill:none;stroke:#000000;stroke-width:0.2;stroke-miterlimit:10;}
</style>
<path id="XMLID_17_" class="st0" d="M212.74,134.4c0,0,3.06,5.25,10.07,0c7-5.25,10.5-11.82,7.88-20.13
	c-2.63-8.32-17.51-28.88-46.39-29.76s-71.34,20.13-83.59,34.57s-38.95,47.7-31.07,110.29s25.82,73.53,61.27,87.97
	s62.15-4.81,62.15-4.81s36.32-21.01,42.01-32.82s9.5-41.78,6.87-47.03c-2.63-5.25-12.69,0.31-12.69,0.31s-14.44,11.82-21.44,20.13
	s-17.94,13.13-28.88,19.26c-10.94,6.13-18.82,16.63-32.39,14.88c-13.57-1.75-50-41.42-52.18-64.62
	c-2.19-23.2,6.49-71.77,27.93-91.03s39.39-29.76,59.08-30.2C201.05,100.96,212.74,134.4,212.74,134.4z"/>
</svg>
