<?xml version="1.0" encoding="utf-8"?>
<!-- Generator: Adobe Illustrator 23.0.2, SVG Export Plug-In . SVG Version: 6.00 Build 0)  -->
<svg version="1.1" id="layer_1" xmlns="http://www.w3.org/2000/svg" xmlns:xlink="http://www.w3.org/1999/xlink" x="0px" y="0px"
	 viewBox="0 0 612 792" style="enable-background:new 0 0 612 792;" xml:space="preserve">
<style type="text/css">
	.st0{fill:none;stroke:#000000;stroke-width:0.2;stroke-miterlimit:10;}
</style>
<path id="XMLID_15_" class="st0" d="M128.95,126.24c9.06-43.57,0.15-37.76,0.15-37.76s-9.06-22.96-42.18-28.41L76.5,80.06
	c0,0,23.66,4.54,23.66,37.26S86.91,229.99,88.33,288.15c1.42,58.15,11.83,63.61,11.83,63.61s18.24,1.82,27.7,0
	c4.73-0.91,4.73-12.27,3.55-23.4l-0.15-1.8L126.29,295l-0.06-1.16c-2.4-26.3-6.3-79.05-3.66-120.77l0.42-0.66
	c4.99-31.31,35.73-48.6,47.48-52.85c20.45-7.41,47.56,8.58,54.14,14.52c13.52,12.21,14.25,42.74,4.56,76
	c-8.52,29.25-85.29,72.54-102.8,82.6l5.32,33.77c32.17-2.72,120.4-55.39,126.51-132.55c6.27-79.18-33.61-99.12-72.92-103.68
	s-57.14,37.12-57.14,37.12L128.95,126.24"/>
</svg>
