<?xml version="1.0" encoding="utf-8"?>
<!-- Generator: Adobe Illustrator 23.0.2, SVG Export Plug-In . SVG Version: 6.00 Build 0)  -->
<svg version="1.1" id="layer_1" xmlns="http://www.w3.org/2000/svg" xmlns:xlink="http://www.w3.org/1999/xlink" x="0px" y="0px"
	 viewBox="0 0 612 792" style="enable-background:new 0 0 612 792;" xml:space="preserve">
<style type="text/css">
	.st0{fill:none;stroke:#000000;stroke-width:0.2;stroke-miterlimit:10;}
</style>
<path id="XMLID_23_" class="st0" d="M102.89,274.68c-1.21,5.24-1.9,10.84-1.9,10.84s4.76,11.01,5.83,11.96
	c1.07,0.95,7.08,1.51,11.38,0.63c4.3-0.88,4.5-8.48,20.02-13.89s58.36-11.1,63.86-9.45c5.5,1.65,20.99,4.96,20.99,4.96
	s8.07-4.25,10-10.86c1.93-6.61-5.25-18.42-12.25-21.27c-7-2.85-15.99-6.25-34.02-4.12c-16.02,1.9-67.14,18.3-78.31,21.93l-0.22-0.79
	c3.8-12.72,1.24-32.01,4.12-59.07l0.1-0.88c5.83-5.94,32.16-9.9,32.16-9.9s6.38,1.14,16.08,0.89s25.86-10.94,29.56-10.63
	c3.7,0.3,11.27-0.65,11.27-0.65l0.79-5.52l4.76-2.5l-10.62-10.77l-6.53-2.29c0,0-5.23-4.81-12.11-4.66
	c-6.88,0.15-63.95,24.52-63.95,24.52l0.31-1.5c-0.27-25.29-8.13-44.53-10.71-56.48c-1.18-5.47-3.95-10.26-6.95-14.11l0.55-0.51
	c3.59-1.68,6.64-8.21,14.76-11.37c9.81-3.81,81.87-7.45,81.87-7.45s11.02-8.19,8.17-15.55c-2.86-7.36-13.76-14.18-13.76-14.18
	l-87.15,13.8L88.4,60.79c0,0-3.59,27.81-3.32,34.27c0.05,1.28,0.27,2.63,0.62,4l0.19,1.81l-5.19,29.18l9.06,13.98
	c0,0,3.9,6.69,5.09,20.06c1.19,13.37-19.99,69.36-19.34,88.76c0.65,19.4,10.37,26.14,10.37,26.14s9.41,2.52,16.53-4.26
	L102.89,274.68z"/>
</svg>
