<?xml version="1.0" encoding="utf-8"?>
<!-- Generator: Adobe Illustrator 23.0.2, SVG Export Plug-In . SVG Version: 6.00 Build 0)  -->
<svg version="1.1" id="layer_1" xmlns="http://www.w3.org/2000/svg" xmlns:xlink="http://www.w3.org/1999/xlink" x="0px" y="0px"
	 viewBox="0 0 612 792" style="enable-background:new 0 0 612 792;" xml:space="preserve">
<style type="text/css">
	.st0{fill:none;stroke:#000000;stroke-width:0.2;stroke-miterlimit:10;}
</style>
<path id="XMLID_22_" class="st0" d="M100.32,187.17l0.02-0.91c0,0,0.83,5.66,5.45,6.26c4.62,0.61,12.6,1.21,21.65-1.66
	s40.1-18.14,56.27-22.57c16.17-4.43,25.41-8.09,23.1-13.14s-13.23-13.74-19.74-13.14c-6.51,0.61-20.79,1.41-26.67,2.22
	c-5.88,0.81-45.36,24.65-50.19,24.04c-4.83-0.61-7.77-4.63-7.77-4.63l-2.22-1.64l-0.02-0.92c-0.04-10.62-0.02-20.73,0.17-27.71
	c0.36-13.41-3.14-35.39-3.97-40.4l-0.18-1.04c3.97,0,65.89-19.05,69.07-19.05c3.18,0,1.59,5.56,4.76,6.35
	c3.18,0.79,25.01,3.57,25.01,3.57s13.89-5.16,11.91-13.5s-12.31-19.45-12.31-19.45s-21.43,0-44.06,2.78
	c-22.63,2.78-53.19,10.72-64.3,10.72s-15.08-5.14-15.08-5.14L55.2,56.13c0.27,13.4,11.25,28.68,12.83,32.65l-0.27,1.65
	c-0.45,3.15-1.16,10.28,0.27,17.07c1.91,9.04,14.65,5.75,15.88,34.94c1.23,29.18-6.86,91.25-8.37,104
	c-1.5,12.74-3.72,19.73,0.06,39.87c16.11,0,12.82,0,12.82,0s6.58-1.23,7.81-16.03c1.23-14.8,4.11-55.81,4.11-73.74
	c0-1.8,0-3.73-0.01-5.74C100.34,188.98,100.33,189.11,100.32,187.17"/>
</svg>
