<?xml version="1.0" encoding="utf-8"?>
<!-- Generator: Adobe Illustrator 23.0.2, SVG Export Plug-In . SVG Version: 6.00 Build 0)  -->
<svg version="1.1" id="layer_1" xmlns="http://www.w3.org/2000/svg" xmlns:xlink="http://www.w3.org/1999/xlink" x="0px" y="0px"
	 viewBox="0 0 612 792" style="enable-background:new 0 0 612 792;" xml:space="preserve">
<style type="text/css">
	.st0{fill:none;stroke:#000000;stroke-width:0.2;stroke-miterlimit:10;}
</style>
<path id="XMLID_21_" class="st0" d="M200.01,274.1l0.05-1.8c-1.13,2.01-2.34,3.72-3.65,4.88c-5.23,4.65-54.99,52.84-104.93,16.84
	S44.44,185.44,45.61,166.27c1.16-19.16,22.65-69.1,40.07-80.72s29.04-18,74.33-12.78c45.29,5.23,59.23,49.94,59.23,49.94
	l-11.88,2.43l-3.56-6.1c0,0-11.97-33.87-44.24-37.63c-32.27-3.76-42.71,7.12-58.99,16.78s-33.56,36.1-37.63,98.14
	s48.82,82.38,48.82,82.38s33.18,3.39,45.93-8.49c3.51-1.11,7.32-6.37,10.89-13.05l1.54-1.16l-17.61-5.26
	c0,0-21.36-15.25-20.34-21.87c1.02-6.61,5.59-16.78,5.59-16.78l28.48,6.1c0,0,42.29-18.81,50.25-16.78
	c7.96,2.03,13.67,13.22,20.28,19.83c6.61,6.61-2.54,15.76-2.54,15.76v64.07l-5.08,9.66l-27.07-9.15L200.01,274.1"/>
</svg>
