<?xml version="1.0" encoding="utf-8"?>
<!-- Generator: Adobe Illustrator 23.0.2, SVG Export Plug-In . SVG Version: 6.00 Build 0)  -->
<svg version="1.1" id="layer_1" xmlns="http://www.w3.org/2000/svg" xmlns:xlink="http://www.w3.org/1999/xlink" x="0px" y="0px"
	 viewBox="0 0 612 792" style="enable-background:new 0 0 612 792;" xml:space="preserve">
<style type="text/css">
	.st0{fill:none;stroke:#000000;stroke-width:0.2;stroke-miterlimit:10;}
</style>
<path id="XMLID_26_" class="st0" d="M174.95,140.85c-0.3-6.44-0.51-12.25-0.51-16.09c0-14.16-0.67-35.75-2.7-44.51
	s-6.84-21.67-6.84-21.67l6.18-8.27c0,0,12.36-3.21,16.78,3.64c4.42,6.84,12.81,22.3,12.81,22.3l-4.42,14.57
	c0,0-4.28,69.7-2.26,91.28s9.3,84.26,6.67,88.99c-2.63,4.72-1.95,13.49-8.02,15.51c-6.07,2.02-9.58,0-9.58,0s-9.98-13.49-9.98-16.86
	s3.63-21.54,4.18-47.84c0.54-26.3,0-41.88,0-41.88l-0.61-1c0,0-6.06-6.51-14.45-5.18s-15.9,2.21-21.2,6.18s-15.9,3.53-22.08,6.62
	s-3.97,11.04-10.16,11.92s-15.44-3.52-15.89-5.74l-0.71,0.68c-0.32,14.67-0.76,26.03-1.26,30.07c-1.92,15.33-5.75,64.22-5.75,64.22
	h-9.15c0,0-7.13-17.28-9.05-29.74c-1.92-12.45,9.48-49.81,9.05-76.63s-1.39-89.08-4.26-99.61S65.3,65.51,65.3,65.51V50.18
	c0,0,22.73,22.03,25.6,29.69c1.74,4.64,2.07,50.67,1.64,89.7l0.32,0.91c0,0,45.48-24.92,49.45-24.92c3.97,0,15.46-2.21,20.75-3.53
	c5.3-1.32,11.72-0.09,11.72-0.09L174.95,140.85z"/>
</svg>
