<?xml version="1.0" encoding="utf-8"?>
<!-- Generator: Adobe Illustrator 23.0.2, SVG Export Plug-In . SVG Version: 6.00 Build 0)  -->
<svg version="1.1" id="layer_1" xmlns="http://www.w3.org/2000/svg" xmlns:xlink="http://www.w3.org/1999/xlink" x="0px" y="0px"
	 viewBox="0 0 612 792" style="enable-background:new 0 0 612 792;" xml:space="preserve">
<style type="text/css">
	.st0{fill:none;stroke:#000000;stroke-width:0.2;stroke-miterlimit:10;}
</style>
<path id="XMLID_25_" class="st0" d="M171.52,78.97c0,0,0,0,1.91,5.31s3.74,31.99,3.74,31.99s5.04,69.49,4.48,76.78
	c-0.56,7.29-14.57,28.7-14.57,28.7l-1.51,0.53c-2.86,0.3-4.49,0.47-4.49,0.47s-45.65,2.59-63.61,0s-28.81-17.99-28.81-17.99
	l3.74,16.09l-7.48-2.25c0,0,4.12,11.23,14.59,30.68c10.48,19.46,34.05,28.06,34.05,28.06l19.46-21.7c0,0,20.95-6.74,40.78-8.61
	c19.83-1.87,83.44-4.12,83.44-4.12s6.74,1.5,13.84,2.99c7.11,1.5,8.61,18.71,8.61,18.71s13.47,7.11,17.21,5.24
	c3.74-1.87,14.59-23.57,14.59-23.57s-2.25-9.35-17.96-23.55c-15.72-14.19-23.2-10.5-28.06-10.5c-2.81,0-37.29,3.51-65.87,6.48
	l-0.02-0.22l3.39-27.14c0,0-3.95-59.96-3.39-70.05s10.09-14.57,8.97-22.98c-1.12-8.41-11.24-20.19-11.24-20.19l1.15-0.04l6.19-0.2
	c0,0,29.89,3.2,44.84,0s20.29-27.28,20.29-27.28l-16.01-12.22c0,0-35.23,10.68-43.77,11.74c-8.54,1.07-59.79,0-73.67,0
	S104.3,38.42,104.3,38.42s-5.34,17.08-5.34,26.16s22.42,26.16,22.42,26.16s5.34-6.41,16.01-11.39c10.68-4.98,22.42,0,22.42,0
	l11.08-0.35L171.52,78.97z"/>
</svg>
