<?xml version="1.0" encoding="utf-8"?>
<!-- Generator: Adobe Illustrator 23.0.2, SVG Export Plug-In . SVG Version: 6.00 Build 0)  -->
<svg version="1.1" id="layer_1" xmlns="http://www.w3.org/2000/svg" xmlns:xlink="http://www.w3.org/1999/xlink" x="0px" y="0px"
	 viewBox="0 0 612 792" style="enable-background:new 0 0 612 792;" xml:space="preserve">
<style type="text/css">
	.st0{fill:none;stroke:#000000;stroke-width:0.2;stroke-miterlimit:10;}
</style>
<path id="XMLID_24_" class="st0" d="M116.58,61.14c-9.04,0.74-17.51,1.54-23.09,2.23c-15.05,1.85-39.23,16.42-39.23,16.42H44.05
	L23.63,51.3V31.42c0,0,10.21,15.58,22.03,15.58s44.6,0.54,55.89,0s52.13-12.36,62.87-14.51s30.09-5.91,37.62-5.91
	c7.52,0,23.11,26.87,23.11,26.87s-11.82,10.75-23.64,9.91c-11.82-0.84-33.32-4.54-45.14-4.54c-3.61,0-9.47,0.25-16.3,0.65
	l-0.98,0.06c0,0,11.37,14.34,14.06,38.52c2.69,24.18,8.06,63.95,8.06,73.08c0,9.14,2.06,44.04-11.06,73.88
	c-20.65,25-35.16,20.17-37.84,20.17s-34.93-22.57-37.62-35.47c-2.69-12.9,2.69-30.63,0-37.62c-2.69-6.99,1.61-21.5,1.61-21.5
	s29.87,46.22,41.26,48.9s19.46-58.57,20-76.31s-6.45-51.05-6.45-51.05l-13.55-31.08L116.58,61.14z"/>
</svg>
