<?xml version="1.0" encoding="utf-8"?>
<!-- Generator: Adobe Illustrator 23.0.2, SVG Export Plug-In . SVG Version: 6.00 Build 0)  -->
<svg version="1.1" id="layer_1" xmlns="http://www.w3.org/2000/svg" xmlns:xlink="http://www.w3.org/1999/xlink" x="0px" y="0px"
	 viewBox="0 0 612 792" style="enable-background:new 0 0 612 792;" xml:space="preserve">
<style type="text/css">
	.st0{fill:none;stroke:#000000;stroke-width:0.2;stroke-miterlimit:10;}
</style>
<path id="XMLID_18_" class="st0" d="M62,172.5c0,0,34.14,5.07,52.69,19.44c18.55,14.36,29.32,49.07,40.1,53.26
	s23.94-3.43,23.94-3.43s11.37-6.75,5.98-17.52c-5.39-10.77-55.66-48.45-64.63-51.75s-49.42-17.67-49.42-17.67l-1.87-1.31
	c9.93-7.85,26.72-21.63,31.7-28.83c7.22-10.42,30.47-27.26,34.43-32.87s18.49-9.62,21.7-13.63c3.21-4.01-4.81-23.25-18.44-37.26
	s-25.66-6.19-25.66-6.19s0,0-3.83,9.92c-3.83,9.92,16.66,9.47,15.86,16.01S107.7,82.2,103.69,90.22
	c-4.01,8.02-43.65,51.42-43.65,51.42l0.15-1.22c-2.12-31.02-4.85-72.27-1.4-76.35c4.81-5.69,14.43-15.4,11.23-28.03
	c-3.21-12.63-15.23-21.58-21.65-23.2s-28.86,0-28.86,0s3.21,18.2,11.23,26.99s12.03,15.3,11.23,34c-0.8,18.71-0.8,117.11-4.81,135
	s4.91,38.22,4.91,38.22s6.31,5.69,14.33,0c7.55-5.36,6.57-50.19,5.76-73.49L62,172.5z"/>
</svg>
