<?xml version="1.0" encoding="utf-8"?>
<!-- Generator: Adobe Illustrator 23.0.2, SVG Export Plug-In . SVG Version: 6.00 Build 0)  -->
<svg version="1.1" id="layer_1" xmlns="http://www.w3.org/2000/svg" xmlns:xlink="http://www.w3.org/1999/xlink" x="0px" y="0px"
	 viewBox="0 0 612 792" style="enable-background:new 0 0 612 792;" xml:space="preserve">
<style type="text/css">
	.st0{fill:none;stroke:#000000;stroke-width:0.2;stroke-miterlimit:10;}
</style>
<path id="XMLID_8_" class="st0" d="M69.11,246.47c0,0,16.54,0.41,29.81-5s46.81-3.6,60.85-5.57c14.04-1.97,37.45,22.69,37.45,22.69
	l16.38-14.42c0,0-2.34-19.82-12.48-26.73c-10.14-6.91-25.74-3.9-51.49-1.2s-78.01,0-78.01,0l0.39-0.92c0-12.4,0-27.36,0-38.72
	c0-23.43,0-115.33-5.41-127.94c-5.41-12.61-41.45-27.03-41.45-27.03s0,0,0,18.02s12.61,16.22,18.92,25.23s1.8,36.94,4.51,49.56
	c2.7,12.61-3.6,100.01-3.6,109.02c0,6.09,4.28,33.1,9.08,44.15c2.31,5.31,7.14,0,7.14,0l7.52-20.06L69.11,246.47z"/>
</svg>
