<?xml version="1.0" encoding="utf-8"?>
<!-- Generator: Adobe Illustrator 23.0.2, SVG Export Plug-In . SVG Version: 6.00 Build 0)  -->
<svg version="1.1" id="layer_1" xmlns="http://www.w3.org/2000/svg" xmlns:xlink="http://www.w3.org/1999/xlink" x="0px" y="0px"
	 viewBox="0 0 612 792" style="enable-background:new 0 0 612 792;" xml:space="preserve">
<style type="text/css">
	.st0{fill:none;stroke:#000000;stroke-width:0.2;stroke-miterlimit:10;}
</style>
<path id="XMLID_2_" class="st0" d="M222.26,67.96L218,67.26c0,0-41.22,123.12-57.8,165.53c-15.64-2.36-13.95-11.19-13.95-11.19
	l-10.9-21.8l-4.74-24.15c0,0-28.42-86.73-36-97.56l0,0L63.82,180.56l4.53,47.29l-13.59,29.28c0,0-38.94-25.9-43.8-38.29
	c-4.86-12.39,8.48-38.29,8.48-38.29l13.59,14.64c0,0,9.06-48.42,15.4-68.69S71.97,24.04,71.97,24.04s15.4,0,23.55,0
	s24.45,13.51,24.45,13.51l-4.53,21.39l-7.84,6.96l-0.93,1.1l45.74,109.23l49.27-142.55c0,0,9.48-11.78,18-12.37s10.9,2.73,10.9,2.73
	s11.1,9.64,13.47,18.48c2.37,8.84-4.74,28.28-4.74,28.28l-1.96-0.32l-0.6,0.32l35.53,92.37l21.32,23.09l8.05,39.47
	c0,0,1.42,19.44-2.84,24.15c-4.26,4.71-19.9,10.01-24.64,7.26c-4.74-2.75-9-20.22-9-20.22s0.47-25.33,0-37.11
	c-0.47-11.78-42.64-131.36-42.64-131.36L222.26,67.96z"/>
</svg>
