<?xml version="1.0" encoding="utf-8"?>
<!-- Generator: Adobe Illustrator 23.0.2, SVG Export Plug-In . SVG Version: 6.00 Build 0)  -->
<svg version="1.1" id="layer_1" xmlns="http://www.w3.org/2000/svg" xmlns:xlink="http://www.w3.org/1999/xlink" x="0px" y="0px"
	 viewBox="0 0 612 792" style="enable-background:new 0 0 612 792;" xml:space="preserve">
<style type="text/css">
	.st0{fill:none;stroke:#000000;stroke-width:0.2;stroke-miterlimit:10;}
</style>
<path class="st0" d="M100.7,78.56c0,0,18.47,9.97,22.3,18.39c3.83,8.43,42.14,91.19,42.14,91.19s16.09,43.68,22.22,43.68
	s20.69-8.43,20.69-8.43l-1.53-37.55c0,0,6.13-98.85,13.79-114.17c7.66-15.33,24.52-19.16,24.52-19.16l17.62-13.79l-4.6-12.26
	l-12.26,0.77l-19.16-6.9c0,0-16.86,12.26-26.82,29.88c-9.96,17.62-22.22,112.64-22.22,112.64l-45.98-73.56c0,0,0.77-16.09,0-25.29
	s-19.16-13.79-19.16-13.79l0.97-1.52l4.4-6.91l-6.13-13.79l-15.33-2.3c0,0-5.36-10.73-10.73-10.73s-11.69,4.66-11.69,4.66l4.8,19.86
	c0,0-64.37,148.66-64.37,161.68s3.83,46.74,3.83,46.74l9.96,4.6c0,0,17.62-6.9,22.22-14.56c4.6-7.66,9.2-41.38,9.2-41.38
	l40.72-116.34L100.7,78.56z"/>
</svg>
