<?xml version="1.0" encoding="utf-8"?>
<!-- Generator: Adobe Illustrator 23.0.2, SVG Export Plug-In . SVG Version: 6.00 Build 0)  -->
<svg version="1.1" id="layer_1" xmlns="http://www.w3.org/2000/svg" xmlns:xlink="http://www.w3.org/1999/xlink" x="0px" y="0px"
	 viewBox="0 0 612 792" style="enable-background:new 0 0 612 792;" xml:space="preserve">
<style type="text/css">
	.st0{fill:none;stroke:#000000;stroke-width:0.2;stroke-miterlimit:10;}
</style>
<path id="XMLID_5_" class="st0" d="M65.48,203.37c0,0-46.17-2.61-47.39-18.28s-6.08-39.83-4.91-49.86
	c1.17-10.03,11.18-83.4,47.35-102.84s47.26-23.2,95.11-12.54s78.19,88.42,72.94,128.55s-51.93,100.33-75.27,102.21
	s-64.18,0-75.27-13.8S58.2,202.35,58.2,202.35s32.19,18.82,46.23,18.82s55.24,5.89,76.23-31.4s32.87-74.08,15.98-102.04
	S153.27,31.8,130.9,31.31S69.28,47.99,63.8,62.22s-2.57,73.59,0.62,84.38c3.2,10.79,11.41,20.6,11.41,20.6l-2.28,23.55L65.48,203.37
	z"/>
</svg>
