<?xml version="1.0" encoding="utf-8"?>
<!-- Generator: Adobe Illustrator 23.0.2, SVG Export Plug-In . SVG Version: 6.00 Build 0)  -->
<svg version="1.1" id="layer_1" xmlns="http://www.w3.org/2000/svg" xmlns:xlink="http://www.w3.org/1999/xlink" x="0px" y="0px"
	 viewBox="0 0 612 792" style="enable-background:new 0 0 612 792;" xml:space="preserve">
<style type="text/css">
	.st0{fill:none;stroke:#000000;stroke-width:0.2;stroke-miterlimit:10;}
</style>
<path class="st0" d="M56.26,180.23l0.34-1.38c2.43-34.19,6.16-89.49,6.04-104.85l0-1.68l10.84,11.59c0,0,0-2.71,1.98-14.47
	c6.74-9.05,42.43-21.71,57.5-20.81s33.7,23.07,46.39,54.73c12.69,31.66-6.34,53.82-13.88,64.23s-67.41,36.64-77.32,35.73
	c-7.99-0.73-25.82-15.28-31.66-20.9l-0.11,41.55c5.89-0.38,27.07-1.94,57.14-7.54c36.48-6.78,86.1-31.7,88.08-84.32
	c1.98-52.62-35.58-93.96-70.51-99.22c-30.56-4.6-61.13,12.66-68.3,17.05l-0.56-1.03c0.18-4.11,0.4-6.8,0.4-6.8L25.52,14.03
	l-12.59,6.78c0,0,11.62,7.75,18.4,44.54s8.71,123.95-9.2,210.13c2.43,50.35,2.43,30.02,2.43,30.02l11.63,30.99
	c0,0,19.34-6.78,24.18-9.68s0-30.99,0-51.32c0-11.74-1.94-32.84-3.57-48.58l-0.53-2.8L56.26,180.23z"/>
</svg>
