<?xml version="1.0" encoding="utf-8"?>
<!-- Generator: Adobe Illustrator 23.0.2, SVG Export Plug-In . SVG Version: 6.00 Build 0)  -->
<svg version="1.1" id="layer_1" xmlns="http://www.w3.org/2000/svg" xmlns:xlink="http://www.w3.org/1999/xlink" x="0px" y="0px"
	 viewBox="0 0 612 792" style="enable-background:new 0 0 612 792;" xml:space="preserve">
<style type="text/css">
	.st0{fill:none;stroke:#000000;stroke-width:0.2;stroke-miterlimit:10;}
</style>
<path class="st0" d="M76.84,170.67c0,0-20.48-51,1.42-105.16c27.61-46.14,58.08-34.34,81.88-22.53s61.89,71.9,58.08,112.67
	c-3.81,40.78-59.9,70.3-76.3,74.79c-23.92,6.56-35.34-18.46-35.34-18.46s-1.9-29.1,13.33-37.68s24.75,6.21,52.61,21.06
	c23.06,21.24,41.1,90.14,41.1,90.14s8.15-26.83,5.3-50.43s-51.41-70.54-66.65-80.2c-15.23-9.66-26.36-14.06-52.57,1.86
	c-6.96,8.15-14.57,17.83-14.23,27.74c0.57,16.53-1.83,33.71,5.06,45.6c3.67,6.34,7.01,11.17,8.67,13.58
	c6.66,9.66,25.71,11.8,72.36,0s91.4-57.95,64.74-143.79S133.48,14,108.72,14S25.89,33.32,14.47,127.75s47.6,115.89,47.6,115.89
	s16.19,8.58,26.66,4.29C99.2,243.64,76.84,170.67,76.84,170.67z"/>
</svg>
