<?xml version="1.0" encoding="utf-8"?>
<!-- Generator: Adobe Illustrator 23.0.2, SVG Export Plug-In . SVG Version: 6.00 Build 0)  -->
<svg version="1.1" id="layer_1" xmlns="http://www.w3.org/2000/svg" xmlns:xlink="http://www.w3.org/1999/xlink" x="0px" y="0px"
	 viewBox="0 0 612 792" style="enable-background:new 0 0 612 792;" xml:space="preserve">
<style type="text/css">
	.st0{fill:none;stroke:#000000;stroke-width:0.2;stroke-miterlimit:10;}
</style>
<path class="st0" d="M75.43,200.2l-0.64,1.92L42.73,298.3c0,0,0,11.51-14.39,4.8S13,262.82,13,262.82l8.63-13.43
	c0,0,58.5-169.74,58.5-184.13S65.75,46.08,55.2,37.45S48.48,6.76,48.48,6.76s23.98,4.8,31.65,10.55s20.14,24.93,20.14,24.93v21.58
	l1.13-1.44c0,0,18.04-30.69,45.11-29.73c27.07,0.96,38.34,3.84,45.11,38.36c6.77,34.52-23.68,90.15-50.75,104.53
	c-1.86,0.99-3.75,1.99-5.64,2.99l-2.13,1.51c0,0,13.93,9.89,29.27,16.24c15.34,6.35,35.48,41.6,46.99,59.82
	c11.51,18.22,16.3,40.28,16.3,40.28s-6.71,14.39-21.1,8.82c-14.39-5.57-20.29-46.22-20.29-46.22
	c-32.75-64.25-77.53-62.69-77.53-62.69l-1.25-2.14c-13.42,7-23.27,12.09-23.27,12.09l-6.93-5.13l10.42-31.23
	c1.73,1.61,7.15,3.58,15.68-1.03c12.4-6.71,63.15-45.07,65.41-67.13c2.26-22.06-3.38-39.32-11.28-40.28s-28.19,26.85-28.19,26.85
	l-25.94,37.4h-1.13l-13.82,41.47l-0.48,1.43L75.43,200.2z"/>
</svg>
