<?xml version="1.0" encoding="utf-8"?>
<!-- Generator: Adobe Illustrator 23.0.2, SVG Export Plug-In . SVG Version: 6.00 Build 0)  -->
<svg version="1.1" id="layer_1" xmlns="http://www.w3.org/2000/svg" xmlns:xlink="http://www.w3.org/1999/xlink" x="0px" y="0px"
	 viewBox="0 0 612 792" style="enable-background:new 0 0 612 792;" xml:space="preserve">
<style type="text/css">
	.st0{fill:none;stroke:#000000;stroke-width:0.2;stroke-miterlimit:10;}
</style>
<path class="st0" d="M132.79,59.59c0,0,17.25-7.84,18.03-14.9c0.78-7.06,0-18.82,0-18.82h-8.84c0,0-9.97-10.19-22.52-10.98
	S68.5,4.72,32.44,69.79c-19.6,70.56,50.17,74.48,64.29,76.05s64.29,3.14,70.56,25.87s-25.87,36.06-47.82,38.41
	s-42.33-7.06-42.33-7.06S58.31,167,42.63,161.51c-13.64,5.49-13.64,30.57-13.64,30.57l-14.59,5.49v12.92c0,0-10.19,26.28,24.3,34.12
	s70.56,9.41,95.64,4.7s41.55-23.52,51.74-43.9c10.19-20.38,11.76-57.06-9.41-72.43s-36.06-31.05-69.77-31.84
	c-33.71-0.78-52.53,4.7-58.8-8.62s-0.78-33.71,29.79-45.47S132.79,59.59,132.79,59.59z"/>
</svg>
