<?xml version="1.0" encoding="utf-8"?>
<!-- Generator: Adobe Illustrator 23.0.2, SVG Export Plug-In . SVG Version: 6.00 Build 0)  -->
<svg version="1.1" id="layer_1" xmlns="http://www.w3.org/2000/svg" xmlns:xlink="http://www.w3.org/1999/xlink" x="0px" y="0px"
	 viewBox="0 0 612 792" style="enable-background:new 0 0 612 792;" xml:space="preserve">
<style type="text/css">
	.st0{fill:none;stroke:#000000;stroke-width:0.2;stroke-miterlimit:10;}
</style>
<path class="st0" d="M126.65,66.53c-14.27,0.56-29.37,0.97-29.37,0.97s-44.46,16.53-58.5,16.25C24.74,83.48,13,68.21,13,68.21
	l11.91-33.9l14.04,0.27l13.61,22.33c0,0,125.1-36.69,143.15-36.34s23.2-6.57,23.2-6.57l7.22,9.17l9.57,4.2l13.69,7.31l-5.44,20.96
	c0,0-5.39,6.92-18.76,4.65c-13.37-2.27-20.33-5.41-20.33-5.41s-28.87,4.42-50.32,7.8l-0.84,1.45c0,0,2.94,16.11,2.79,23.74
	c-0.15,7.64,5.01,41.27,6.5,78.42c4.55,35.15,10.42,83.27,6.28,89.87c-4.14,6.6-9.34,16.05-31.09,7.99
	c-21.75-8.06-23.72-26.71-23.72-26.71l9.25-9.86l14.31,10.31c0,0,2.05-28.14,0.92-47.25s-5.67-95.59-5.67-95.59l-6.03-17.58
	L126.65,66.53z"/>
</svg>
