<?xml version="1.0" encoding="utf-8"?>
<!-- Generator: Adobe Illustrator 23.0.2, SVG Export Plug-In . SVG Version: 6.00 Build 0)  -->
<svg version="1.1" id="layer_1" xmlns="http://www.w3.org/2000/svg" xmlns:xlink="http://www.w3.org/1999/xlink" x="0px" y="0px"
	 viewBox="0 0 612 792" style="enable-background:new 0 0 612 792;" xml:space="preserve">
<style type="text/css">
	.st0{fill:none;stroke:#000000;stroke-width:0.2;stroke-miterlimit:10;}
</style>
<path class="st0" d="M13,14c0,0,36.49,1.08,53.44,14.05s14.34,39.98,14.34,39.98s-2.4,103.71,8.02,119.92s12.02,24.69,36.79,24.69
	c20.04,0,28.94-20.03,32.89-29.88c0.93-2.31,1.31-4.79,1.11-7.27c-1.56-19.14-5.41-122.05-1.92-130.75
	c3.91-9.73,3.34-29.84,18.98-29.84s20.88,6.28,22.85,20.12c3.31,23.15,4.88,86.72,0.14,148.32c-8.45,34.8-23,71.65-61.53,71.65
	c-32.6,0-83.41-1.08-91.23-55.11S60.44,68.38,47.41,56.5s-30.5-20.88-29.2-26.29S13,14,13,14z"/>
</svg>
