<?xml version="1.0" encoding="utf-8"?>
<!-- Generator: Adobe Illustrator 23.0.2, SVG Export Plug-In . SVG Version: 6.00 Build 0)  -->
<svg version="1.1" id="layer_1" xmlns="http://www.w3.org/2000/svg" xmlns:xlink="http://www.w3.org/1999/xlink" x="0px" y="0px"
	 viewBox="0 0 612 792" style="enable-background:new 0 0 612 792;" xml:space="preserve">
<style type="text/css">
	.st0{fill:none;stroke:#000000;stroke-width:0.2;stroke-miterlimit:10;}
</style>
<path class="st0" d="M38.76,229l-8.59,20.55c0,0,8.59-4.8,27.19-0.51C75.97,253.33,184.75,229,184.75,229l41.51,20.04l31.49-5.72
	l15.74-25.76l-15.74-27.19c0,0-27.19-7.16-62.97-8.59c-25.57-1.02-94.28,23.54-131.4,37.64l-3.13-0.43c0,0,108.77-137.4,133.1-156
	s32.92-12.88,32.92-12.88l-7.16-18.05c0,0-24.33-13.44-38.64-17.73S50.21,50.1,50.21,50.1L13,24.34v18.61l15.74,18.61l11.45,40.07
	l31.49-5.72l1.43-20.04l83.01-17.17L38.76,229"/>
</svg>
